<svg id="Layer_3" data-name="Layer 3" xmlns="http://www.w3.org/2000/svg" viewBox="0 0 458.47 173.51">
  <defs>
    <style>
      .cls-1 {
        fill: #e91e63;
      }

      .cls-2 {
        fill: #fff;
      }

      .cls-3 {
        fill: #263238;
      }
    </style>
  </defs>
  <title>HashLearning_logo</title>
  <g>
    <g>
      <g id="LOGO">
        <g>
          <path class="cls-1" d="M151.76,73.48c-4.3-16.11-15.16-26.11-39.5-31.46A130.23,130.23,0,0,0,55,46C42.26,49.91,32.77,58.06,29,71c-7.41,25.49-6.69,51,2.82,75.87A31.59,31.59,0,0,0,51.17,166,108,108,0,0,0,76,171.62c16.16,1.51,32.36.81,48.09-3.88,13.57-4,23.71-12.23,27.92-26C158.9,119,157.8,96.1,151.76,73.48Zm-56.81,23c-2.79.14-5.48,0.28-8.13,0.47C89.47,96.76,92.16,96.62,94.94,96.48ZM81.55,116.87c2.85-.17,5.56-0.29,8.2-0.45-2.64.15-5.36,0.28-8.2,0.45q-0.14-2.24-.29-4.41Q81.41,114.63,81.55,116.87Z" transform="translate(-24 -40.49)"/>
          <path class="cls-1" d="M99.21,96.25c0.4,6,.89,11.31,1,16.61,0,1-1.37,2.83-2.26,2.92-5.25.57-10.54,0.75-16.38,1.09-0.38-6-.83-11.55-1-17.12a3.44,3.44,0,0,1,2.27-2.47C88.12,96.77,93.41,96.58,99.21,96.25Z" transform="translate(-24 -40.49)"/>
        </g>
        <path class="cls-2" d="M115.35,129.57c0.11,2.79.32,5.8,0.33,8.81A6.86,6.86,0,0,1,102,139.63c-0.48-3.13-.57-6.32-0.87-10l-18.71,1.14c0.16,3.38.35,6.24,0.41,9.1,0.08,4.27-2.37,7.16-6.29,7.56s-6.85-2.15-7.43-6.42c-0.41-3-.54-6-0.83-9.41C65,131.75,62,131.94,59,132c-4.26.1-7.18-2.32-7.64-6.21s2-6.8,6.37-7.44c1.5-.22,3-0.22,4.56-0.35s3-.28,5.22-0.49L66.46,98.24c-3.55.15-6.57,0.37-9.58,0.4-4.26,0-7.32-2.6-7.58-6.33-0.27-4.05,2.46-7,7-7.43,1.52-.15,3-0.16,4.57-0.27,1.35-.1,2.7-0.27,4.54-0.45-0.12-3.13-.3-6.11-0.33-9.1,0-4.23,2.5-7.16,6.37-7.51s6.82,2.3,7.35,6.54c0.38,3,.52,6,0.8,9.41l18.72-1.15C98.16,79,98,76.09,97.9,73.21c-0.07-4.23,2.5-7.25,6.31-7.57s6.79,2.26,7.43,6.48c0.45,3-.14,7.12,1.58,8.57S119,81,122,81.05c4.25,0,7.13,2.56,7.45,6.47s-2.29,6.75-6.61,7.28c-3,.36-6,0.48-9.63.75l1.14,19.29c3.23-.14,6.06-0.31,8.9-0.37,4.7-.1,7.85,2.29,8.22,6.16,0.39,4.23-2.34,7.14-7.26,7.63-2.58.26-5.17,0.37-7.75,0.59A4,4,0,0,0,115.35,129.57ZM99.21,96.25c-5.8.33-11.09,0.52-16.35,1a3.44,3.44,0,0,0-2.27,2.47c0.13,5.57.59,11.14,1,17.12,5.84-.34,11.14-0.52,16.38-1.09,0.89-.1,2.28-1.92,2.26-2.92C100.09,107.56,99.61,102.27,99.21,96.25Z" transform="translate(-24 -40.49)"/>
      </g>
      <g id="HASH">
        <path class="cls-3" d="M347.84,122.22a16.74,16.74,0,0,1,4.33.5,11.47,11.47,0,0,1,4,2.24q1.44,1.16,2.6,2a21.14,21.14,0,0,0,2.31,1.52,10.57,10.57,0,0,0,2.52,1,18.67,18.67,0,0,0,3.39.5c0.58,0,1.42,0,2.53-.14a11.06,11.06,0,0,0,3.25-.79,7.34,7.34,0,0,0,2.82-2.09,6.06,6.06,0,0,0,1.22-4q0-4.47-2.38-6.78T366,111.83a95.08,95.08,0,0,1-10-3.82,35.08,35.08,0,0,1-8.08-5,21.83,21.83,0,0,1-5.48-6.78,19.46,19.46,0,0,1-2-9.09q0-7.79,2.89-12.84a23.47,23.47,0,0,1,7.29-8,27.9,27.9,0,0,1,9.67-4.11,47,47,0,0,1,10-1.15,37.44,37.44,0,0,1,10.46,1.44,26,26,0,0,1,9.45,5.19,23.19,23.19,0,0,1,4,4.69,10.63,10.63,0,0,1,1.88,6,8.56,8.56,0,0,1-2.74,6.21A8.37,8.37,0,0,1,390,86.72a13.17,13.17,0,0,1-3.89.58,16,16,0,0,1-6.35-1.3q-2.17-.87-3.32-1.44a16.35,16.35,0,0,0-2-.87,7.61,7.61,0,0,0-1.8-.36l-2.67-.22q-3.9-.29-5.27,1.3a4.75,4.75,0,0,0-1.37,3q0.87,4.33,11.83,7.79a42.4,42.4,0,0,1,11.18,5.05,30.29,30.29,0,0,1,7.36,6.71,24.16,24.16,0,0,1,4,7.79,31.36,31.36,0,0,1-1.52,21.5A28.37,28.37,0,0,1,389,145.6a30.44,30.44,0,0,1-10.17,5.63,36.47,36.47,0,0,1-11.47,1.88,40.09,40.09,0,0,1-8.73-1,39.11,39.11,0,0,1-8.59-3,31.26,31.26,0,0,1-7.22-4.76A18.47,18.47,0,0,1,338,138a11.21,11.21,0,0,1-.87-4.19,11.81,11.81,0,0,1,3.1-8A9.7,9.7,0,0,1,347.84,122.22Z" transform="translate(-24 -40.49)"/>
        <path class="cls-3" d="M333.12,137.23a11.12,11.12,0,0,1,1,4.76,10.47,10.47,0,0,1-1.81,6,12.14,12.14,0,0,1-16.16,3.39,10,10,0,0,1-4.12-5.05l-6.49-15.58H281.75l-6.5,15.58a11.11,11.11,0,0,1-4.11,5.05,10.76,10.76,0,0,1-6,1.73,13.09,13.09,0,0,1-5.05-1.15,11.52,11.52,0,0,1-5.12-4.11,10.43,10.43,0,0,1-1.8-6,10.77,10.77,0,0,1,1-4.62L282.9,67.68a9.73,9.73,0,0,1,4.4-4.91,14.33,14.33,0,0,1,6.42-1.88,13.33,13.33,0,0,1,6.42,1.52,10.2,10.2,0,0,1,4.4,5.12ZM290,111.11h7.64l-3.89-10.68Z" transform="translate(-24 -40.49)"/>
        <path class="cls-3" d="M434.42,97.4h25.11V72.15a10.69,10.69,0,0,1,3.32-8.08,11.63,11.63,0,0,1,8.37-3.17,10.86,10.86,0,0,1,11.26,11.26v69.7a10.7,10.7,0,0,1-3.32,8.08,11.62,11.62,0,0,1-8.37,3.17,10.86,10.86,0,0,1-11.26-11.26v-21.5H434.42v21.5a10.7,10.7,0,0,1-3.32,8.08,11.62,11.62,0,0,1-8.37,3.17,10.86,10.86,0,0,1-11.26-11.26V72.15a10.69,10.69,0,0,1,3.32-8.08,11.63,11.63,0,0,1,8.37-3.17,10.86,10.86,0,0,1,11.26,11.26V97.4Z" transform="translate(-24 -40.49)"/>
        <path class="cls-3" d="M192.86,97.4H218V72.15a10.7,10.7,0,0,1,3.32-8.08,11.63,11.63,0,0,1,8.37-3.17,10.86,10.86,0,0,1,11.26,11.26v69.7a10.7,10.7,0,0,1-3.32,8.08,11.62,11.62,0,0,1-8.37,3.17A10.86,10.86,0,0,1,218,141.85v-21.5H192.86v21.5a10.7,10.7,0,0,1-3.32,8.08,11.63,11.63,0,0,1-8.37,3.17,10.86,10.86,0,0,1-11.26-11.26V72.15a10.7,10.7,0,0,1,3.32-8.08,11.63,11.63,0,0,1,8.37-3.17,10.86,10.86,0,0,1,11.26,11.26V97.4Z" transform="translate(-24 -40.49)"/>
      </g>
    </g>
    <g>
      <path class="cls-1" d="M215.17,160.47a16.26,16.26,0,0,1-5.25-.7,5.09,5.09,0,0,1-2.7-1.78,4.42,4.42,0,0,1-.57-1.34,3,3,0,0,1,.19-2,6.36,6.36,0,0,0,1.94,1.05,11.11,11.11,0,0,0,1.94.48,12.08,12.08,0,0,0,2.1.19,21.46,21.46,0,0,0,3.72-.32,26.91,26.91,0,0,0,3.6-.89q0.76-3.82,1.5-6.87a23.54,23.54,0,0,1,1.69-5,32.86,32.86,0,0,1,2.13-3.79,13.71,13.71,0,0,1,2.48-2.86,10.25,10.25,0,0,1,3-1.81,10.61,10.61,0,0,1,3.82-.64,4.37,4.37,0,0,1,2.51.64,4.2,4.2,0,0,1,1.4,1.59,5.66,5.66,0,0,1,.57,2.07q0.1,1.11.1,2.07a12.17,12.17,0,0,1-1,4.58,21.67,21.67,0,0,1-2.86,4.9,28.88,28.88,0,0,1-4.42,4.58,23.81,23.81,0,0,1-5.76,3.56q-1.08,4.2-2.13,8.31a64.37,64.37,0,0,1-2.07,6.78q-0.89,2.48-2.26,5.54a35.09,35.09,0,0,1-3.34,5.86q1.21,0.76,2.45,1.59a28,28,0,0,0,2.51,1.5,18.19,18.19,0,0,0,2.58,1.11,8.52,8.52,0,0,0,2.77.45,14.2,14.2,0,0,0,3-.45,12.28,12.28,0,0,0,2.67-1.05,9.44,9.44,0,0,0,2.61-2.07,3.85,3.85,0,0,1,.29,2.29,8.32,8.32,0,0,1-3.34,5.73A6.18,6.18,0,0,1,227.2,195a14.82,14.82,0,0,1-4.52-.67,25.2,25.2,0,0,1-3.95-1.62,32.59,32.59,0,0,1-3.47-2.07l-3-2.07a16.9,16.9,0,0,1-4.2,3,11.22,11.22,0,0,1-5.09,1.15,5,5,0,0,1-3.56-1.24,4,4,0,0,1-1.21-3.34,7.23,7.23,0,0,1,.45-1.81,5.12,5.12,0,0,1,1.43-2,8.65,8.65,0,0,1,2.9-1.62,14.27,14.27,0,0,1,4.77-.67,9.4,9.4,0,0,1,2.07.22,19.92,19.92,0,0,1,1.94.54,32,32,0,0,0,1.4-2.93q0.7-1.65,1.53-3.76,1.46-4,2.55-8.05t1.85-7.86a12.88,12.88,0,0,1-1.88.25Q216.18,160.47,215.17,160.47ZM204.6,189.24q0.83-.32,1.91-0.64a6.23,6.23,0,0,0,2.48-1.78,5.05,5.05,0,0,0-1.46-.32,6.41,6.41,0,0,0-3.34.67,1.79,1.79,0,0,0-1.05,1.3,0.73,0.73,0,0,0,.38.67A1.59,1.59,0,0,0,204.6,189.24Zm24.06-44.3q-0.32,1-.83,2.8T226.75,152a20.29,20.29,0,0,0,5.51-5.09,9.75,9.75,0,0,0,2.07-5.73q0-1.72-1-1.72a3.84,3.84,0,0,0-2.29,1.37A10.53,10.53,0,0,0,228.66,144.94Z" transform="translate(-24 -40.49)"/>
      <path class="cls-1" d="M265.58,168.87a48.5,48.5,0,0,1-4.33,5.44,39.43,39.43,0,0,1-5.12,4.71,28.1,28.1,0,0,1-5.54,3.34,13.39,13.39,0,0,1-5.51,1.27,8,8,0,0,1-3-.67,8.61,8.61,0,0,1-3-2.07,10.06,10.06,0,0,1-2.13-3.63,12.44,12.44,0,0,1-.48-5.41,16.76,16.76,0,0,1,1.62-5.51,25.09,25.09,0,0,1,3.37-5.31,19.19,19.19,0,0,1,4.52-4,9.39,9.39,0,0,1,5.06-1.59,4.49,4.49,0,0,1,3.5,1.21,3.88,3.88,0,0,1,1,3,9.19,9.19,0,0,1-1.11,3.63,14.7,14.7,0,0,1-2.2,3,22.3,22.3,0,0,1-2.7,2.42q-1.43,1.08-2.71,2l-2.67,1.81q-1.27.86-2.23,1.56a6.9,6.9,0,0,0,.57,2.67,5.25,5.25,0,0,0,1.27,1.75,4.55,4.55,0,0,0,1.75,1,7.15,7.15,0,0,0,2,.29,9,9,0,0,0,4.52-1.37,31,31,0,0,0,4.61-3.31,51,51,0,0,0,4.2-4q1.94-2.1,3.21-3.63a1.71,1.71,0,0,1,.92-0.6,0.8,0.8,0,0,1,1.05.89A2.4,2.4,0,0,1,265.58,168.87Zm-16.29-9.8a3.28,3.28,0,0,0-1.81.76,9.44,9.44,0,0,0-2.07,2.2,19.06,19.06,0,0,0-1.91,3.5,20.43,20.43,0,0,0-1.34,4.74q0.76-.57,1.65-1.18t1.78-1.3a17.73,17.73,0,0,0,3.82-3.69,6.44,6.44,0,0,0,1.21-2.74,2.62,2.62,0,0,0-.25-1.75A1.25,1.25,0,0,0,249.28,159.07Z" transform="translate(-24 -40.49)"/>
      <path class="cls-1" d="M293.64,169.45q-0.89,1.27-2.29,3.15t-2.9,3.76q-1.5,1.88-2.93,3.44a14.43,14.43,0,0,1-2.39,2.2,6.66,6.66,0,0,1-1.46.64,7.69,7.69,0,0,1-1.69.32,5.87,5.87,0,0,1-1.62-.1,3.77,3.77,0,0,1-1.34-.54,3.34,3.34,0,0,1-1-1.27,11,11,0,0,1-.6-1.85,10.44,10.44,0,0,1-.22-2.86,13.29,13.29,0,0,1-3.37,3.91,15,15,0,0,1-3.5,2,13.74,13.74,0,0,1-3.82.83,3.78,3.78,0,0,1-1.91-.6,4.75,4.75,0,0,1-1.72-1.91,8.88,8.88,0,0,1-.89-3.37,15.28,15.28,0,0,1,.51-4.93,23.59,23.59,0,0,1,2.83-7.06,28.27,28.27,0,0,1,4.23-5.44,18.86,18.86,0,0,1,4.52-3.41,7.16,7.16,0,0,1,3.69-1,7.76,7.76,0,0,1,2.8,1,3,3,0,0,1,1.18,1.88q0.29,1.24-1.05,3.28a14.77,14.77,0,0,1,1.5-.25c0.4,0,.71-0.06.92-0.06a1.34,1.34,0,0,1,.51.06,1.47,1.47,0,0,1,.06.54,10.29,10.29,0,0,1-.19,1.5q-0.19,1.08-.57,2.93T280,171q-0.13.57-.22,1l-0.19,1-0.22,1.11L279,175.68a7.77,7.77,0,0,0,0,1.24,4.58,4.58,0,0,0,.22,1.24,2,2,0,0,0,.6.92,1.77,1.77,0,0,0,1.18.35,3,3,0,0,0,1.65-.8,18.59,18.59,0,0,0,2.16-2q1.15-1.24,2.39-2.74t2.32-2.9q1.08-1.4,1.94-2.48t1.24-1.59a1.89,1.89,0,0,1,1-.67,0.69,0.69,0,0,1,.76.29,1.52,1.52,0,0,1,.1,1.15A4.77,4.77,0,0,1,293.64,169.45ZM275,172.25q0.32-1.27.76-3t0.76-3.31q0.32-1.59.48-2.64t-0.1-1a6,6,0,0,0-.7.19,3.37,3.37,0,0,1-.83.19,8.74,8.74,0,0,0-1,.19,5.85,5.85,0,0,0,.6-1.69,3.64,3.64,0,0,0,0-1.05,1.52,1.52,0,0,0-.25-0.7q-0.7-.57-2.45.92a21.64,21.64,0,0,0-4,5.51,17,17,0,0,0-1.53,3.53,22.37,22.37,0,0,0-.8,3.53,12.39,12.39,0,0,0-.1,2.9,2.82,2.82,0,0,0,.51,1.62,2.08,2.08,0,0,0,1.59.67,4.26,4.26,0,0,0,1.81-.51,10.44,10.44,0,0,0,1.85-1.24,14.86,14.86,0,0,0,1.65-1.59,15.56,15.56,0,0,0,1.21-1.53A3.4,3.4,0,0,0,275,172.25Z" transform="translate(-24 -40.49)"/>
      <path class="cls-1" d="M287,181.79a2.24,2.24,0,0,1-1,.92,1.27,1.27,0,0,1-1,.06,0.89,0.89,0,0,1-.54-0.67,1.9,1.9,0,0,1,.25-1.27l0.86-1.72q0.67-1.34,1.59-3.21l2-4.07q1.08-2.2,2.07-4.17t1.81-3.53l1.21-2.26q-0.7-.64-1-0.92a2.54,2.54,0,0,1-.38-1.24,4.45,4.45,0,0,1,.38-2.16,12.91,12.91,0,0,1,1.34-2.58,10.67,10.67,0,0,1,1.85-2.13,3.05,3.05,0,0,1,2-.89,2.75,2.75,0,0,1,2.51,1.15,5.42,5.42,0,0,1,.86,2.35,6.24,6.24,0,0,1-.13,2.1,6.12,6.12,0,0,1-1,2.29,4.53,4.53,0,0,0,.51.29,2.41,2.41,0,0,0,1,.16,5.5,5.5,0,0,0,1.43-.13A4.84,4.84,0,0,1,305,160a2.83,2.83,0,0,1,1.78.54A4.37,4.37,0,0,1,308,161.9a6.78,6.78,0,0,1,.67,1.72,11.27,11.27,0,0,1,.29,1.69,5.22,5.22,0,0,1-.83,3.31q-1,1.72-2.48,3.76-0.89,1.27-1.78,2.86a4.93,4.93,0,0,0-.76,2.86,3.51,3.51,0,0,0,.45,1.34,2.1,2.1,0,0,0,1.78.51,4.67,4.67,0,0,0,2.39-.8,17.91,17.91,0,0,0,2.67-2,36.69,36.69,0,0,0,2.71-2.74q1.34-1.49,2.48-2.93t1.94-2.58q0.8-1.15,1.18-1.65a1.65,1.65,0,0,1,.83-0.7,1.08,1.08,0,0,1,.89,0,1,1,0,0,1,.48.76,2.44,2.44,0,0,1-.48,1.53q-0.38.64-1.3,2T316.84,174q-1.31,1.72-2.9,3.53a32.77,32.77,0,0,1-3.34,3.31,20.64,20.64,0,0,1-3.5,2.45,7,7,0,0,1-3.34,1,5.34,5.34,0,0,1-2.74-.64,5.68,5.68,0,0,1-1.75-1.56,6,6,0,0,1-1-2,6.55,6.55,0,0,1-.22-2.07,5.51,5.51,0,0,1,.41-1.62q0.35-.86.83-1.78t1-1.85q0.54-.92,1-1.81,1.08-1.85,1.75-3.15a5.05,5.05,0,0,0,.67-2.2,2,2,0,0,0-.25-1,0.88,0.88,0,0,0-.83-0.45,3.17,3.17,0,0,0-.54,0,1.58,1.58,0,0,1-.32,0l-0.45,0a8.32,8.32,0,0,1-.86,0,3.43,3.43,0,0,1-1.4-.25,6.79,6.79,0,0,0-1.08-.38q-0.25.45-1.15,1.91t-2.07,3.44L292.34,173l-2.45,4-1.94,3.18Q287.15,181.54,287,181.79Z" transform="translate(-24 -40.49)"/>
      <path class="cls-1" d="M334.76,183.7a5.44,5.44,0,0,1-2.51-.54,4.64,4.64,0,0,1-1.69-1.43,4.82,4.82,0,0,1-.83-2.07,6.38,6.38,0,0,1,.13-2.51q0.19-.89.64-2.39t0.92-3.25q0.48-1.75.89-3.5a22.89,22.89,0,0,0,.54-3.18,6.81,6.81,0,0,0-.13-2.35,1.07,1.07,0,0,0-1.08-.92,4,4,0,0,0-2.1.67,11.62,11.62,0,0,0-2.2,1.81,26.4,26.4,0,0,0-2.23,2.64q-1.11,1.5-2.2,3.09-0.57,2.16-1,3.79t-0.67,2.93q-0.29,1.31-.54,2.29t-0.45,1.88a2.47,2.47,0,0,1-1.15,1.24,10.06,10.06,0,0,1-2,1,5.77,5.77,0,0,1-1.88.38q-0.8,0-.67-0.57,0.06-.38.41-1.72l0.83-3.15q0.48-1.81,1-3.85t1-3.88l0.7-3.25q0.32-1.53.8-3.56t1.11-4.46a4.06,4.06,0,0,1,.92-0.6,5.49,5.49,0,0,1,1-.35,4.5,4.5,0,0,1,1.08-.25,8.33,8.33,0,0,1,1,.06,5.38,5.38,0,0,1,.92.22,2.64,2.64,0,0,1,.86.48q-0.19.45-.45,1.24t-0.51,1.69q-0.25,1-.64,2.1a29.1,29.1,0,0,1,1.88-2.32,16.79,16.79,0,0,1,2.29-2.13,12.38,12.38,0,0,1,2.64-1.56,7.16,7.16,0,0,1,2.86-.6,3.57,3.57,0,0,1,2.16.7,4.65,4.65,0,0,1,1.5,1.94,8.59,8.59,0,0,1,.64,3,11.55,11.55,0,0,1-.48,3.76l-0.7,2.8q-0.32,1.34-.8,3.15t-1.18,4a6.91,6.91,0,0,0-.29,2.42,1.07,1.07,0,0,0,1.24,1,5.15,5.15,0,0,0,2.9-1.4,30.34,30.34,0,0,0,3.53-3.37q1.78-2,3.37-4t2.42-3.34a3.23,3.23,0,0,1,1.08-1.08,0.79,0.79,0,0,1,.8-0.06,1,1,0,0,1,.29.86,4,4,0,0,1-.51,1.69q-0.45.89-1.37,2.35t-2.2,3.12q-1.27,1.66-2.74,3.34a29.7,29.7,0,0,1-3.06,3.06,18.73,18.73,0,0,1-3.15,2.23A6.16,6.16,0,0,1,334.76,183.7Z" transform="translate(-24 -40.49)"/>
      <path class="cls-1" d="M351.18,158.18a2.45,2.45,0,0,1,1.21-.64,16.92,16.92,0,0,1,1.85-.41,14.45,14.45,0,0,1,1.75-.19,3.21,3.21,0,0,1,.92,0,4.87,4.87,0,0,1-.32,1.34q-0.38,1.27-1,3t-1.21,3.53q-0.64,1.81-1,3t-0.76,2.58q-0.45,1.43-.8,2.8a18,18,0,0,0-.48,2.58,3.41,3.41,0,0,0,.19,1.85,2.49,2.49,0,0,0,.7,1.05,1.35,1.35,0,0,0,.83.29,6,6,0,0,0,3.21-1.4,35.81,35.81,0,0,0,3.95-3.34q2-1.94,3.72-3.95a40.32,40.32,0,0,0,2.55-3.21,2.44,2.44,0,0,1,1.05-.83,0.92,0.92,0,0,1,.89.06,1,1,0,0,1,.38.83,2.48,2.48,0,0,1-.41,1.34,33.8,33.8,0,0,1-3,4.23,62.83,62.83,0,0,1-4.2,4.71,38.61,38.61,0,0,1-4.36,3.85,7,7,0,0,1-3.47,1.65,5,5,0,0,1-2.13-.35,6.74,6.74,0,0,1-1.91-1.15,6.56,6.56,0,0,1-1.43-1.72,4.6,4.6,0,0,1-.64-2.07,24.49,24.49,0,0,1,0-4.36,54.17,54.17,0,0,1,.7-5.66,46.29,46.29,0,0,1,1.3-5.51A11.86,11.86,0,0,1,351.18,158.18Zm8.78-7a3.76,3.76,0,0,1-.73,1.37,4.82,4.82,0,0,1-1.21,1.08,3.91,3.91,0,0,1-1.37.54,1.31,1.31,0,0,1-1.15-.25,3,3,0,0,1-1.4-2.2,3.81,3.81,0,0,1,.57-2.23,6.41,6.41,0,0,1,1.59-1.78,4.14,4.14,0,0,1,1.65-.86,1.34,1.34,0,0,1,1.18.29,2.65,2.65,0,0,1,.73,1.08,4.73,4.73,0,0,1,.29,1.5A4.5,4.5,0,0,1,360,151.18Z" transform="translate(-24 -40.49)"/>
      <path class="cls-1" d="M382.75,183.7a5.44,5.44,0,0,1-2.51-.54,4.64,4.64,0,0,1-1.69-1.43,4.82,4.82,0,0,1-.83-2.07,6.38,6.38,0,0,1,.13-2.51q0.19-.89.64-2.39t0.92-3.25q0.48-1.75.89-3.5a22.89,22.89,0,0,0,.54-3.18,6.81,6.81,0,0,0-.13-2.35,1.07,1.07,0,0,0-1.08-.92,4,4,0,0,0-2.1.67,11.62,11.62,0,0,0-2.2,1.81,26.4,26.4,0,0,0-2.23,2.64q-1.11,1.5-2.2,3.09-0.57,2.16-1,3.79t-0.67,2.93q-0.29,1.31-.54,2.29t-0.45,1.88a2.47,2.47,0,0,1-1.15,1.24,10.06,10.06,0,0,1-2,1,5.77,5.77,0,0,1-1.88.38q-0.8,0-.67-0.57,0.06-.38.41-1.72l0.83-3.15q0.48-1.81,1-3.85t1-3.88l0.7-3.25q0.32-1.53.8-3.56t1.11-4.46a4.06,4.06,0,0,1,.92-0.6,5.49,5.49,0,0,1,1-.35,4.5,4.5,0,0,1,1.08-.25,8.33,8.33,0,0,1,1,.06,5.38,5.38,0,0,1,.92.22,2.64,2.64,0,0,1,.86.48q-0.19.45-.45,1.24t-0.51,1.69q-0.25,1-.64,2.1a29.1,29.1,0,0,1,1.88-2.32,16.79,16.79,0,0,1,2.29-2.13,12.38,12.38,0,0,1,2.64-1.56,7.16,7.16,0,0,1,2.86-.6,3.57,3.57,0,0,1,2.16.7,4.65,4.65,0,0,1,1.5,1.94,8.59,8.59,0,0,1,.64,3,11.55,11.55,0,0,1-.48,3.76l-0.7,2.8q-0.32,1.34-.8,3.15t-1.18,4a6.91,6.91,0,0,0-.29,2.42,1.07,1.07,0,0,0,1.24,1,5.15,5.15,0,0,0,2.9-1.4,30.34,30.34,0,0,0,3.53-3.37q1.78-2,3.37-4t2.42-3.34a3.23,3.23,0,0,1,1.08-1.08,0.79,0.79,0,0,1,.8-0.06,1,1,0,0,1,.29.86,4,4,0,0,1-.51,1.69q-0.45.89-1.37,2.35t-2.2,3.12q-1.27,1.66-2.74,3.34a29.7,29.7,0,0,1-3.06,3.06,18.73,18.73,0,0,1-3.15,2.23A6.16,6.16,0,0,1,382.75,183.7Z" transform="translate(-24 -40.49)"/>
      <path class="cls-1" d="M410.76,191.21L410,195q-0.48,2.29-1.08,4.84t-1.4,5.06a35.39,35.39,0,0,1-1.75,4.52,13.66,13.66,0,0,1-2.1,3.28,3.38,3.38,0,0,1-2.55,1.27,5.45,5.45,0,0,1-3.6-1.24,10.49,10.49,0,0,1-2.51-3.12,15.38,15.38,0,0,1-1.5-4,18.71,18.71,0,0,1-.48-4,16.94,16.94,0,0,1,.45-4.23,9.59,9.59,0,0,1,1.56-3.21,21.66,21.66,0,0,1,3-3.25q1.91-1.72,4.9-4.26l2.8-2.42q1.34-1.15,2.55-2.1,0.32-1.27.6-2.39t0.48-2a15.59,15.59,0,0,1-4,3.76,9.46,9.46,0,0,1-5.31,1.53,5.15,5.15,0,0,1-4.42-2.45Q394,178.1,394,173.33a19.59,19.59,0,0,1,.89-5.41,23.1,23.1,0,0,1,2.55-5.73,16.64,16.64,0,0,1,4.07-4.52,8.7,8.7,0,0,1,5.41-1.85,4.17,4.17,0,0,1,2.42.7,6.45,6.45,0,0,1,1.72,1.75,9,9,0,0,1,1.08,2.23,17.82,17.82,0,0,1,.57,2.2,4.85,4.85,0,0,0,.19-0.8,3.29,3.29,0,0,1,.19-0.73,7.17,7.17,0,0,1,1.43-3,3.24,3.24,0,0,1,2.39-.8,3.19,3.19,0,0,1,1.5.32,0.92,0.92,0,0,1,.6.57q-0.32.7-.51,1.08t-0.38.8a8.21,8.21,0,0,0-.38,1.05q-0.19.64-.51,1.85-0.13.45-.48,2.07T415.82,169q-0.54,2.23-1.15,4.9l-1.18,5.22a33,33,0,0,0,3.69-2.48q1.91-1.46,3.63-3t3.06-2.9a20.65,20.65,0,0,0,2-2.26,3.06,3.06,0,0,1,1.15-1.08,1.75,1.75,0,0,1,1.11-.22,0.68,0.68,0,0,1,.57.57,2,2,0,0,1-.41,1.3,28,28,0,0,1-3.56,4.55,59,59,0,0,1-4.3,4.07,53.21,53.21,0,0,1-4.26,3.31q-2.07,1.43-3.53,2.32-0.64,2.86-1.08,4.65T410.76,191.21Zm-10.95,17q1.27,0,2.07-1.88a42.75,42.75,0,0,0,1.69-5.12l0.54-2.2q0.35-1.43.83-3.28t1-4q0.51-2.13,1.08-4.3l-1.05.92a13.63,13.63,0,0,0-1.11,1.11l-2.71,2.58a20.38,20.38,0,0,0-2.32,2.61,12.15,12.15,0,0,0-1.62,3,10.34,10.34,0,0,0-.6,3.69,30,30,0,0,0,.16,3.44,9.33,9.33,0,0,0,.45,2.1,2.16,2.16,0,0,0,.7,1.05A1.58,1.58,0,0,0,399.81,208.21Zm2.93-29.53a4.83,4.83,0,0,0,2.51-.7,11.87,11.87,0,0,0,3.72-3.5q0.64-1,1-1.53t0.6-1.53a13.79,13.79,0,0,0,.54-1.85,6.32,6.32,0,0,0,.16-1.59,0.66,0.66,0,0,0-.48-0.76,0.83,0.83,0,0,1-.6-0.51,4.36,4.36,0,0,1-.35-1,7,7,0,0,1-.16-1.15q0-.57-0.1-1a7.23,7.23,0,0,0-1.08-3.25,2.16,2.16,0,0,0-1.72-1,4.5,4.5,0,0,0-3,1.27,12.35,12.35,0,0,0-2.55,3.28,19.12,19.12,0,0,0-1.75,4.39,17.66,17.66,0,0,0-.64,4.55,10.18,10.18,0,0,0,.76,4.3Q400.32,178.68,402.74,178.68Z" transform="translate(-24 -40.49)"/>
    </g>
  </g>
</svg>
